# xmcd
#
# Track frame offsets: 
#        150
#        19960
#        51450
#        72363
#        103635
#
# Disc length: 1798 seconds
#
# Revision: 0
# Processed by: cddbd v1.5.1PL2 Copyright (c) Steve Scherf et al.
# Submitted via: ExactAudioCopy v0.95b3
#
DISCID=44070405
DTITLE=Alexander O'Neal - Love Makes No Sense CDS
DYEAR=1993
DGENRE=R&B
TTITLE0=Love Makes No Sense (Radio Edit)
TTITLE1=Love Makes No Sense (LP Version)
TTITLE2=Love Makes No Sense (Radio Bonus Beat Edit)
TTITLE3=Love Makes No Sense (Bonus Beat Mix)
TTITLE4=Love Makes No Sense (Instrumental)
EXTD=
EXTT0=
EXTT1=
EXTT2=
EXTT3=
EXTT4=
PLAYORDER=
